<svg width="362" height="83" viewBox="0 0 362 83" fill="none" xmlns="http://www.w3.org/2000/svg">
<path d="M21.696 62.512C17.7707 62.512 14.3147 61.744 11.328 60.208C8.384 58.672 6.10133 56.5813 4.48 53.936C2.85867 51.248 2.048 48.1973 2.048 44.784C2.048 41.328 2.83733 38.2773 4.416 35.632C6.03733 32.944 8.23467 30.8533 11.008 29.36C13.7813 27.824 16.9173 27.056 20.416 27.056C23.7867 27.056 26.816 27.7813 29.504 29.232C32.2347 30.64 34.3893 32.688 35.968 35.376C37.5467 38.0213 38.336 41.2 38.336 44.912C38.336 45.296 38.3147 45.744 38.272 46.256C38.2293 46.7253 38.1867 47.1733 38.144 47.6H10.176V41.776H32.896L29.056 43.504C29.056 41.712 28.6933 40.1547 27.968 38.832C27.2427 37.5093 26.24 36.4853 24.96 35.76C23.68 34.992 22.1867 34.608 20.48 34.608C18.7733 34.608 17.2587 34.992 15.936 35.76C14.656 36.4853 13.6533 37.5307 12.928 38.896C12.2027 40.2187 11.84 41.7973 11.84 43.632V45.168C11.84 47.0453 12.2453 48.7093 13.056 50.16C13.9093 51.568 15.0827 52.656 16.576 53.424C18.112 54.1493 19.904 54.512 21.952 54.512C23.7867 54.512 25.3867 54.2347 26.752 53.68C28.16 53.1253 29.44 52.2933 30.592 51.184L35.904 56.944C34.3253 58.736 32.3413 60.1227 29.952 61.104C27.5627 62.0427 24.8107 62.512 21.696 62.512ZM65.911 27.056C68.6417 27.056 71.0737 27.6107 73.207 28.72C75.383 29.7867 77.0897 31.4507 78.327 33.712C79.5643 35.9307 80.183 38.7893 80.183 42.288V62H70.199V43.824C70.199 41.0507 69.5803 39.0027 68.343 37.68C67.1483 36.3573 65.4417 35.696 63.223 35.696C61.6443 35.696 60.215 36.0373 58.935 36.72C57.6977 37.36 56.7163 38.3627 55.991 39.728C55.3083 41.0933 54.967 42.8427 54.967 44.976V62H44.983V27.568H54.519V37.104L52.727 34.224C53.9643 31.92 55.735 30.1493 58.039 28.912C60.343 27.6747 62.967 27.056 65.911 27.056ZM103.313 62.512C99.2597 62.512 96.1023 61.488 93.841 59.44C91.5797 57.3493 90.449 54.256 90.449 50.16V19.952H100.433V50.032C100.433 51.4827 100.817 52.6133 101.585 53.424C102.353 54.192 103.398 54.576 104.721 54.576C106.3 54.576 107.644 54.1493 108.753 53.296L111.441 60.336C110.417 61.0613 109.18 61.616 107.729 62C106.321 62.3413 104.849 62.512 103.313 62.512ZM85.137 36.016V28.336H109.009V36.016H85.137ZM133.071 62.512C129.146 62.512 125.69 61.744 122.703 60.208C119.759 58.672 117.476 56.5813 115.855 53.936C114.234 51.248 113.423 48.1973 113.423 44.784C113.423 41.328 114.212 38.2773 115.791 35.632C117.412 32.944 119.61 30.8533 122.383 29.36C125.156 27.824 128.292 27.056 131.791 27.056C135.162 27.056 138.191 27.7813 140.879 29.232C143.61 30.64 145.764 32.688 147.343 35.376C148.922 38.0213 149.711 41.2 149.711 44.912C149.711 45.296 149.69 45.744 149.647 46.256C149.604 46.7253 149.562 47.1733 149.519 47.6H121.551V41.776H144.271L140.431 43.504C140.431 41.712 140.068 40.1547 139.343 38.832C138.618 37.5093 137.615 36.4853 136.335 35.76C135.055 34.992 133.562 34.608 131.855 34.608C130.148 34.608 128.634 34.992 127.311 35.76C126.031 36.4853 125.028 37.5307 124.303 38.896C123.578 40.2187 123.215 41.7973 123.215 43.632V45.168C123.215 47.0453 123.62 48.7093 124.431 50.16C125.284 51.568 126.458 52.656 127.951 53.424C129.487 54.1493 131.279 54.512 133.327 54.512C135.162 54.512 136.762 54.2347 138.127 53.68C139.535 53.1253 140.815 52.2933 141.967 51.184L147.279 56.944C145.7 58.736 143.716 60.1227 141.327 61.104C138.938 62.0427 136.186 62.512 133.071 62.512Z" fill="#727272"/>
<path d="M180.84 17.2V54.96H199.08V62H173.48V17.2H180.84ZM230.167 57.968C226.924 61.2107 222.935 62.832 218.199 62.832C213.463 62.832 209.473 61.2107 206.231 57.968C202.945 54.6827 201.303 50.6933 201.303 46C201.303 41.3067 202.945 37.3173 206.231 34.032C209.473 30.7893 213.463 29.168 218.199 29.168C222.935 29.168 226.924 30.7893 230.167 34.032C233.452 37.3173 235.095 41.3067 235.095 46C235.095 50.6933 233.452 54.6827 230.167 57.968ZM208.215 46C208.215 48.9013 209.175 51.312 211.095 53.232C213.015 55.152 215.383 56.112 218.199 56.112C221.015 56.112 223.383 55.152 225.303 53.232C227.223 51.312 228.183 48.9013 228.183 46C228.183 43.0987 227.223 40.688 225.303 38.768C223.383 36.848 221.015 35.888 218.199 35.888C215.383 35.888 213.015 36.848 211.095 38.768C209.175 40.688 208.215 43.0987 208.215 46ZM256.449 62.832C251.627 62.832 247.595 61.2107 244.353 57.968C241.153 54.6827 239.553 50.6933 239.553 46C239.553 41.2213 241.153 37.232 244.353 34.032C247.595 30.7893 251.627 29.168 256.449 29.168C259.563 29.168 262.401 29.9147 264.961 31.408C267.521 32.9013 269.441 34.9067 270.721 37.424L264.769 40.88C264.043 39.344 262.934 38.1493 261.441 37.296C259.99 36.4 258.305 35.952 256.385 35.952C253.569 35.952 251.201 36.912 249.281 38.832C247.403 40.7947 246.465 43.184 246.465 46C246.465 48.816 247.403 51.2053 249.281 53.168C251.201 55.088 253.569 56.048 256.385 56.048C258.262 56.048 259.947 55.6213 261.441 54.768C262.977 53.872 264.129 52.656 264.897 51.12L270.849 54.512C269.483 57.072 267.499 59.0987 264.897 60.592C262.337 62.0853 259.521 62.832 256.449 62.832ZM289.541 45.68L304.132 62H295.877L282.757 47.216V62H275.845V17.2H282.757V44.144L295.173 30H303.621L289.541 45.68ZM337.132 48.944H311.66C312.172 51.3333 313.324 53.1893 315.116 54.512C316.95 55.8347 319.212 56.496 321.9 56.496C325.526 56.496 328.278 55.1733 330.156 52.528L335.852 55.856C332.737 60.5067 328.065 62.832 321.836 62.832C316.673 62.832 312.47 61.2533 309.228 58.096C306.028 54.896 304.428 50.864 304.428 46C304.428 41.264 306.006 37.2747 309.164 34.032C312.278 30.7893 316.332 29.168 321.324 29.168C325.974 29.168 329.814 30.8107 332.844 34.096C335.873 37.3813 337.388 41.3707 337.388 46.064C337.388 46.9173 337.302 47.8773 337.132 48.944ZM311.595 43.312H330.412C329.942 40.7947 328.876 38.8533 327.212 37.488C325.59 36.1227 323.606 35.44 321.26 35.44C318.7 35.44 316.566 36.144 314.86 37.552C313.153 38.96 312.065 40.88 311.595 43.312ZM350.382 30V35.376C352.131 31.408 355.416 29.424 360.238 29.424V36.912C357.635 36.7413 355.331 37.3813 353.326 38.832C351.363 40.24 350.382 42.5867 350.382 45.872V62H343.47V30H350.382Z" fill="white"/>
</svg>
