<svg width="1385" height="398" viewBox="0 0 1385 398" fill="none" xmlns="http://www.w3.org/2000/svg">
<g filter="url(#filter0_d_15360_66114)">
<rect x="4" width="1377" height="243" rx="25" fill="#2AB954"/>
</g>
<rect x="50" y="60" width="117" height="117" rx="22" stroke="white" stroke-width="6"/>
<path d="M238.83 84.1818V154H224.068V84.1818H238.83ZM265.224 123.727V154H250.702V101.636H264.543V110.875H265.156C266.315 107.83 268.259 105.42 270.986 103.648C273.713 101.852 277.02 100.955 280.906 100.955C284.543 100.955 287.713 101.75 290.418 103.341C293.122 104.932 295.224 107.205 296.724 110.159C298.224 113.091 298.974 116.591 298.974 120.659V154H284.452V123.25C284.474 120.045 283.656 117.545 281.997 115.75C280.338 113.932 278.054 113.023 275.145 113.023C273.19 113.023 271.463 113.443 269.963 114.284C268.486 115.125 267.327 116.352 266.486 117.966C265.668 119.557 265.247 121.477 265.224 123.727ZM357.364 101.636L339.057 154H322.693L304.386 101.636H319.727L330.602 139.102H331.148L341.989 101.636H357.364ZM386.767 155.023C381.472 155.023 376.892 153.898 373.028 151.648C369.188 149.375 366.222 146.216 364.131 142.17C362.04 138.102 360.994 133.386 360.994 128.023C360.994 122.614 362.04 117.886 364.131 113.841C366.222 109.773 369.188 106.614 373.028 104.364C376.892 102.091 381.472 100.955 386.767 100.955C392.062 100.955 396.631 102.091 400.472 104.364C404.335 106.614 407.312 109.773 409.403 113.841C411.494 117.886 412.54 122.614 412.54 128.023C412.54 133.386 411.494 138.102 409.403 142.17C407.312 146.216 404.335 149.375 400.472 151.648C396.631 153.898 392.062 155.023 386.767 155.023ZM386.835 143.773C389.244 143.773 391.256 143.091 392.869 141.727C394.483 140.341 395.699 138.455 396.517 136.068C397.358 133.682 397.778 130.966 397.778 127.92C397.778 124.875 397.358 122.159 396.517 119.773C395.699 117.386 394.483 115.5 392.869 114.114C391.256 112.727 389.244 112.034 386.835 112.034C384.403 112.034 382.358 112.727 380.699 114.114C379.063 115.5 377.824 117.386 376.983 119.773C376.165 122.159 375.756 124.875 375.756 127.92C375.756 130.966 376.165 133.682 376.983 136.068C377.824 138.455 379.063 140.341 380.699 141.727C382.358 143.091 384.403 143.773 386.835 143.773ZM421.983 154V101.636H436.506V154H421.983ZM429.278 94.8864C427.119 94.8864 425.267 94.1705 423.722 92.7386C422.199 91.2841 421.438 89.5455 421.438 87.5227C421.438 85.5227 422.199 83.8068 423.722 82.375C425.267 80.9205 427.119 80.1932 429.278 80.1932C431.438 80.1932 433.278 80.9205 434.801 82.375C436.347 83.8068 437.119 85.5227 437.119 87.5227C437.119 89.5455 436.347 91.2841 434.801 92.7386C433.278 94.1705 431.438 94.8864 429.278 94.8864ZM471.798 155.023C466.435 155.023 461.821 153.886 457.957 151.614C454.116 149.318 451.162 146.136 449.094 142.068C447.048 138 446.026 133.318 446.026 128.023C446.026 122.659 447.06 117.955 449.128 113.909C451.219 109.841 454.185 106.67 458.026 104.398C461.866 102.102 466.435 100.955 471.73 100.955C476.298 100.955 480.298 101.784 483.73 103.443C487.162 105.102 489.878 107.432 491.878 110.432C493.878 113.432 494.98 116.955 495.185 121H481.48C481.094 118.386 480.071 116.284 478.412 114.693C476.776 113.08 474.628 112.273 471.969 112.273C469.719 112.273 467.753 112.886 466.071 114.114C464.412 115.318 463.116 117.08 462.185 119.398C461.253 121.716 460.787 124.523 460.787 127.818C460.787 131.159 461.241 134 462.151 136.341C463.082 138.682 464.389 140.466 466.071 141.693C467.753 142.92 469.719 143.534 471.969 143.534C473.628 143.534 475.116 143.193 476.435 142.511C477.776 141.83 478.878 140.841 479.741 139.545C480.628 138.227 481.207 136.648 481.48 134.807H495.185C494.957 138.807 493.866 142.33 491.912 145.375C489.98 148.398 487.31 150.761 483.901 152.466C480.491 154.17 476.457 155.023 471.798 155.023ZM528.347 155.023C522.96 155.023 518.324 153.932 514.438 151.75C510.574 149.545 507.597 146.432 505.506 142.409C503.415 138.364 502.369 133.58 502.369 128.057C502.369 122.67 503.415 117.943 505.506 113.875C507.597 109.807 510.54 106.636 514.335 104.364C518.153 102.091 522.631 100.955 527.767 100.955C531.222 100.955 534.438 101.511 537.415 102.625C540.415 103.716 543.028 105.364 545.256 107.568C547.506 109.773 549.256 112.545 550.506 115.886C551.756 119.205 552.381 123.091 552.381 127.545V131.534H508.165V122.534H538.71C538.71 120.443 538.256 118.591 537.347 116.977C536.438 115.364 535.176 114.102 533.562 113.193C531.972 112.261 530.119 111.795 528.006 111.795C525.801 111.795 523.847 112.307 522.142 113.33C520.46 114.33 519.142 115.682 518.188 117.386C517.233 119.068 516.744 120.943 516.722 123.011V131.568C516.722 134.159 517.199 136.398 518.153 138.284C519.131 140.17 520.506 141.625 522.278 142.648C524.051 143.67 526.153 144.182 528.585 144.182C530.199 144.182 531.676 143.955 533.017 143.5C534.358 143.045 535.506 142.364 536.46 141.455C537.415 140.545 538.142 139.432 538.642 138.114L552.074 139C551.392 142.227 549.994 145.045 547.881 147.455C545.79 149.841 543.085 151.705 539.767 153.045C536.472 154.364 532.665 155.023 528.347 155.023ZM596.384 154H580.565L604.668 84.1818H623.69L647.759 154H631.94L614.452 100.136H613.906L596.384 154ZM595.395 126.557H632.759V138.08H595.395V126.557ZM655.889 154V101.636H669.969V110.773H670.514C671.469 107.523 673.071 105.068 675.321 103.409C677.571 101.727 680.162 100.886 683.094 100.886C683.821 100.886 684.605 100.932 685.446 101.023C686.287 101.114 687.026 101.239 687.662 101.398V114.284C686.98 114.08 686.037 113.898 684.832 113.739C683.628 113.58 682.526 113.5 681.526 113.5C679.389 113.5 677.48 113.966 675.798 114.898C674.139 115.807 672.821 117.08 671.844 118.716C670.889 120.352 670.412 122.239 670.412 124.375V154H655.889ZM716.392 155.023C711.028 155.023 706.415 153.886 702.551 151.614C698.71 149.318 695.756 146.136 693.688 142.068C691.642 138 690.619 133.318 690.619 128.023C690.619 122.659 691.653 117.955 693.722 113.909C695.813 109.841 698.778 106.67 702.619 104.398C706.46 102.102 711.028 100.955 716.324 100.955C720.892 100.955 724.892 101.784 728.324 103.443C731.756 105.102 734.472 107.432 736.472 110.432C738.472 113.432 739.574 116.955 739.778 121H726.074C725.688 118.386 724.665 116.284 723.006 114.693C721.369 113.08 719.222 112.273 716.562 112.273C714.312 112.273 712.347 112.886 710.665 114.114C709.006 115.318 707.71 117.08 706.778 119.398C705.847 121.716 705.381 124.523 705.381 127.818C705.381 131.159 705.835 134 706.744 136.341C707.676 138.682 708.983 140.466 710.665 141.693C712.347 142.92 714.312 143.534 716.562 143.534C718.222 143.534 719.71 143.193 721.028 142.511C722.369 141.83 723.472 140.841 724.335 139.545C725.222 138.227 725.801 136.648 726.074 134.807H739.778C739.551 138.807 738.46 142.33 736.506 145.375C734.574 148.398 731.903 150.761 728.494 152.466C725.085 154.17 721.051 155.023 716.392 155.023ZM763.599 123.727V154H749.077V84.1818H763.19V110.875H763.804C764.986 107.784 766.895 105.364 769.531 103.614C772.168 101.841 775.474 100.955 779.452 100.955C783.088 100.955 786.259 101.75 788.963 103.341C791.69 104.909 793.804 107.17 795.304 110.125C796.827 113.057 797.577 116.568 797.554 120.659V154H783.031V123.25C783.054 120.023 782.236 117.511 780.577 115.716C778.94 113.92 776.645 113.023 773.69 113.023C771.713 113.023 769.963 113.443 768.44 114.284C766.94 115.125 765.759 116.352 764.895 117.966C764.054 119.557 763.622 121.477 763.599 123.727ZM808.983 154V101.636H823.506V154H808.983ZM816.278 94.8864C814.119 94.8864 812.267 94.1705 810.722 92.7386C809.199 91.2841 808.438 89.5455 808.438 87.5227C808.438 85.5227 809.199 83.8068 810.722 82.375C812.267 80.9205 814.119 80.1932 816.278 80.1932C818.438 80.1932 820.278 80.9205 821.801 82.375C823.347 83.8068 824.119 85.5227 824.119 87.5227C824.119 89.5455 823.347 91.2841 821.801 92.7386C820.278 94.1705 818.438 94.8864 816.278 94.8864ZM883.957 101.636L865.651 154H849.287L830.98 101.636H846.321L857.196 139.102H857.741L868.582 101.636H883.957ZM913.565 155.023C908.179 155.023 903.543 153.932 899.656 151.75C895.793 149.545 892.815 146.432 890.724 142.409C888.634 138.364 887.588 133.58 887.588 128.057C887.588 122.67 888.634 117.943 890.724 113.875C892.815 109.807 895.759 106.636 899.554 104.364C903.372 102.091 907.849 100.955 912.986 100.955C916.44 100.955 919.656 101.511 922.634 102.625C925.634 103.716 928.247 105.364 930.474 107.568C932.724 109.773 934.474 112.545 935.724 115.886C936.974 119.205 937.599 123.091 937.599 127.545V131.534H893.384V122.534H923.929C923.929 120.443 923.474 118.591 922.565 116.977C921.656 115.364 920.395 114.102 918.781 113.193C917.19 112.261 915.338 111.795 913.224 111.795C911.02 111.795 909.065 112.307 907.361 113.33C905.679 114.33 904.361 115.682 903.406 117.386C902.452 119.068 901.963 120.943 901.94 123.011V131.568C901.94 134.159 902.418 136.398 903.372 138.284C904.349 140.17 905.724 141.625 907.497 142.648C909.27 143.67 911.372 144.182 913.804 144.182C915.418 144.182 916.895 143.955 918.236 143.5C919.577 143.045 920.724 142.364 921.679 141.455C922.634 140.545 923.361 139.432 923.861 138.114L937.293 139C936.611 142.227 935.213 145.045 933.099 147.455C931.009 149.841 928.304 151.705 924.986 153.045C921.69 154.364 917.884 155.023 913.565 155.023ZM990.645 116.568L977.349 117.386C977.122 116.25 976.634 115.227 975.884 114.318C975.134 113.386 974.145 112.648 972.918 112.102C971.713 111.534 970.27 111.25 968.588 111.25C966.338 111.25 964.44 111.727 962.895 112.682C961.349 113.614 960.577 114.864 960.577 116.432C960.577 117.682 961.077 118.739 962.077 119.602C963.077 120.466 964.793 121.159 967.224 121.682L976.702 123.591C981.793 124.636 985.588 126.318 988.088 128.636C990.588 130.955 991.838 134 991.838 137.773C991.838 141.205 990.827 144.216 988.804 146.807C986.804 149.398 984.054 151.42 980.554 152.875C977.077 154.307 973.065 155.023 968.52 155.023C961.588 155.023 956.065 153.58 951.952 150.693C947.861 147.784 945.463 143.83 944.759 138.83L959.043 138.08C959.474 140.193 960.52 141.807 962.179 142.92C963.838 144.011 965.963 144.557 968.554 144.557C971.099 144.557 973.145 144.068 974.69 143.091C976.259 142.091 977.054 140.807 977.077 139.239C977.054 137.92 976.497 136.841 975.406 136C974.315 135.136 972.634 134.477 970.361 134.023L961.293 132.216C956.179 131.193 952.372 129.42 949.872 126.898C947.395 124.375 946.156 121.159 946.156 117.25C946.156 113.886 947.065 110.989 948.884 108.557C950.724 106.125 953.304 104.25 956.622 102.932C959.963 101.614 963.872 100.955 968.349 100.955C974.963 100.955 980.168 102.352 983.963 105.148C987.781 107.943 990.009 111.75 990.645 116.568Z" fill="white"/>
<g filter="url(#filter1_d_15360_66114)">
<path d="M1250.33 350.944C1253.36 358.224 1250.45 385.796 1234.36 392.187C1218.28 398.578 1197.73 392.187 1197.73 392.187L1160.44 317.612L1096 382.056V91L1293.41 288.414H1219.86C1223.47 295.336 1246.48 341.695 1250.33 350.944Z" fill="white"/>
<path fill-rule="evenodd" clip-rule="evenodd" d="M1113.29 132.754V340.3L1165.18 288.413L1208.42 374.891C1208.42 374.891 1220.12 378.623 1225.72 374.891C1231.31 371.158 1236.88 363.641 1234.36 357.595C1222.47 329.05 1191.12 271.118 1191.12 271.118H1251.66L1113.29 132.754Z" fill="black"/>
</g>
<defs>
<filter id="filter0_d_15360_66114" x="0" y="0" width="1385" height="251" filterUnits="userSpaceOnUse" color-interpolation-filters="sRGB">
<feFlood flood-opacity="0" result="BackgroundImageFix"/>
<feColorMatrix in="SourceAlpha" type="matrix" values="0 0 0 0 0 0 0 0 0 0 0 0 0 0 0 0 0 0 127 0" result="hardAlpha"/>
<feOffset dy="4"/>
<feGaussianBlur stdDeviation="2"/>
<feComposite in2="hardAlpha" operator="out"/>
<feColorMatrix type="matrix" values="0 0 0 0 0 0 0 0 0 0 0 0 0 0 0 0 0 0 0.25 0"/>
<feBlend mode="normal" in2="BackgroundImageFix" result="effect1_dropShadow_15360_66114"/>
<feBlend mode="normal" in="SourceGraphic" in2="effect1_dropShadow_15360_66114" result="shape"/>
</filter>
<filter id="filter1_d_15360_66114" x="1094.2" y="90.2" width="201.014" height="307.627" filterUnits="userSpaceOnUse" color-interpolation-filters="sRGB">
<feFlood flood-opacity="0" result="BackgroundImageFix"/>
<feColorMatrix in="SourceAlpha" type="matrix" values="0 0 0 0 0 0 0 0 0 0 0 0 0 0 0 0 0 0 127 0" result="hardAlpha"/>
<feOffset dy="1"/>
<feGaussianBlur stdDeviation="0.9"/>
<feColorMatrix type="matrix" values="0 0 0 0 0 0 0 0 0 0 0 0 0 0 0 0 0 0 0.65 0"/>
<feBlend mode="normal" in2="BackgroundImageFix" result="effect1_dropShadow_15360_66114"/>
<feBlend mode="normal" in="SourceGraphic" in2="effect1_dropShadow_15360_66114" result="shape"/>
</filter>
</defs>
</svg>
