<svg width="1385" height="251" viewBox="0 0 1385 251" fill="none" xmlns="http://www.w3.org/2000/svg">
<g filter="url(#filter0_d_15362_66230)">
<rect x="4" width="1377" height="243" rx="25" fill="#1C1C1C"/>
</g>
<rect x="50" y="60" width="117" height="117" rx="22" fill="white" stroke="white" stroke-width="6"/>
<path d="M224.068 84.1818H242.273L261.5 131.091H262.318L281.545 84.1818H299.75V154H285.432V108.557H284.852L266.784 153.659H257.034L238.966 108.386H238.386V154H224.068V84.1818ZM335.503 155.023C330.116 155.023 325.48 153.932 321.594 151.75C317.73 149.545 314.753 146.432 312.662 142.409C310.571 138.364 309.526 133.58 309.526 128.057C309.526 122.67 310.571 117.943 312.662 113.875C314.753 109.807 317.696 106.636 321.491 104.364C325.31 102.091 329.787 100.955 334.923 100.955C338.378 100.955 341.594 101.511 344.571 102.625C347.571 103.716 350.185 105.364 352.412 107.568C354.662 109.773 356.412 112.545 357.662 115.886C358.912 119.205 359.537 123.091 359.537 127.545V131.534H315.321V122.534H345.866C345.866 120.443 345.412 118.591 344.503 116.977C343.594 115.364 342.332 114.102 340.719 113.193C339.128 112.261 337.276 111.795 335.162 111.795C332.957 111.795 331.003 112.307 329.298 113.33C327.616 114.33 326.298 115.682 325.344 117.386C324.389 119.068 323.901 120.943 323.878 123.011V131.568C323.878 134.159 324.355 136.398 325.31 138.284C326.287 140.17 327.662 141.625 329.435 142.648C331.207 143.67 333.31 144.182 335.741 144.182C337.355 144.182 338.832 143.955 340.173 143.5C341.514 143.045 342.662 142.364 343.616 141.455C344.571 140.545 345.298 139.432 345.798 138.114L359.23 139C358.548 142.227 357.151 145.045 355.037 147.455C352.946 149.841 350.241 151.705 346.923 153.045C343.628 154.364 339.821 155.023 335.503 155.023ZM392.878 155.023C387.491 155.023 382.855 153.932 378.969 151.75C375.105 149.545 372.128 146.432 370.037 142.409C367.946 138.364 366.901 133.58 366.901 128.057C366.901 122.67 367.946 117.943 370.037 113.875C372.128 109.807 375.071 106.636 378.866 104.364C382.685 102.091 387.162 100.955 392.298 100.955C395.753 100.955 398.969 101.511 401.946 102.625C404.946 103.716 407.56 105.364 409.787 107.568C412.037 109.773 413.787 112.545 415.037 115.886C416.287 119.205 416.912 123.091 416.912 127.545V131.534H372.696V122.534H403.241C403.241 120.443 402.787 118.591 401.878 116.977C400.969 115.364 399.707 114.102 398.094 113.193C396.503 112.261 394.651 111.795 392.537 111.795C390.332 111.795 388.378 112.307 386.673 113.33C384.991 114.33 383.673 115.682 382.719 117.386C381.764 119.068 381.276 120.943 381.253 123.011V131.568C381.253 134.159 381.73 136.398 382.685 138.284C383.662 140.17 385.037 141.625 386.81 142.648C388.582 143.67 390.685 144.182 393.116 144.182C394.73 144.182 396.207 143.955 397.548 143.5C398.889 143.045 400.037 142.364 400.991 141.455C401.946 140.545 402.673 139.432 403.173 138.114L416.605 139C415.923 142.227 414.526 145.045 412.412 147.455C410.321 149.841 407.616 151.705 404.298 153.045C401.003 154.364 397.196 155.023 392.878 155.023ZM454.241 101.636V112.545H422.707V101.636H454.241ZM429.866 89.0909H444.389V137.909C444.389 139.25 444.594 140.295 445.003 141.045C445.412 141.773 445.98 142.284 446.707 142.58C447.457 142.875 448.321 143.023 449.298 143.023C449.98 143.023 450.662 142.966 451.344 142.852C452.026 142.716 452.548 142.614 452.912 142.545L455.196 153.352C454.469 153.58 453.446 153.841 452.128 154.136C450.81 154.455 449.207 154.648 447.321 154.716C443.821 154.852 440.753 154.386 438.116 153.318C435.503 152.25 433.469 150.591 432.014 148.341C430.56 146.091 429.844 143.25 429.866 139.818V89.0909ZM463.702 154V101.636H478.224V154H463.702ZM470.997 94.8864C468.838 94.8864 466.986 94.1705 465.44 92.7386C463.918 91.2841 463.156 89.5455 463.156 87.5227C463.156 85.5227 463.918 83.8068 465.44 82.375C466.986 80.9205 468.838 80.1932 470.997 80.1932C473.156 80.1932 474.997 80.9205 476.52 82.375C478.065 83.8068 478.838 85.5227 478.838 87.5227C478.838 89.5455 478.065 91.2841 476.52 92.7386C474.997 94.1705 473.156 94.8864 470.997 94.8864ZM504.381 123.727V154H489.858V101.636H503.699V110.875H504.312C505.472 107.83 507.415 105.42 510.142 103.648C512.869 101.852 516.176 100.955 520.062 100.955C523.699 100.955 526.869 101.75 529.574 103.341C532.278 104.932 534.381 107.205 535.881 110.159C537.381 113.091 538.131 116.591 538.131 120.659V154H523.608V123.25C523.631 120.045 522.813 117.545 521.153 115.75C519.494 113.932 517.21 113.023 514.301 113.023C512.347 113.023 510.619 113.443 509.119 114.284C507.642 115.125 506.483 116.352 505.642 117.966C504.824 119.557 504.403 121.477 504.381 123.727ZM573.168 174.727C568.463 174.727 564.429 174.08 561.065 172.784C557.724 171.511 555.065 169.773 553.088 167.568C551.111 165.364 549.827 162.886 549.236 160.136L562.668 158.33C563.077 159.375 563.724 160.352 564.611 161.261C565.497 162.17 566.668 162.898 568.122 163.443C569.599 164.011 571.395 164.295 573.509 164.295C576.668 164.295 579.27 163.523 581.315 161.977C583.384 160.455 584.418 157.898 584.418 154.307V144.727H583.804C583.168 146.182 582.213 147.557 580.94 148.852C579.668 150.148 578.031 151.205 576.031 152.023C574.031 152.841 571.645 153.25 568.872 153.25C564.94 153.25 561.361 152.341 558.134 150.523C554.929 148.682 552.372 145.875 550.463 142.102C548.577 138.307 547.634 133.511 547.634 127.716C547.634 121.784 548.599 116.83 550.531 112.852C552.463 108.875 555.031 105.898 558.236 103.92C561.463 101.943 564.997 100.955 568.838 100.955C571.77 100.955 574.224 101.455 576.202 102.455C578.179 103.432 579.77 104.659 580.974 106.136C582.202 107.591 583.145 109.023 583.804 110.432H584.349V101.636H598.77V154.511C598.77 158.966 597.679 162.693 595.497 165.693C593.315 168.693 590.293 170.943 586.429 172.443C582.588 173.966 578.168 174.727 573.168 174.727ZM573.474 142.341C575.815 142.341 577.793 141.761 579.406 140.602C581.043 139.42 582.293 137.739 583.156 135.557C584.043 133.352 584.486 130.716 584.486 127.648C584.486 124.58 584.054 121.92 583.19 119.67C582.327 117.398 581.077 115.636 579.44 114.386C577.804 113.136 575.815 112.511 573.474 112.511C571.088 112.511 569.077 113.159 567.44 114.455C565.804 115.727 564.565 117.5 563.724 119.773C562.884 122.045 562.463 124.67 562.463 127.648C562.463 130.67 562.884 133.284 563.724 135.489C564.588 137.67 565.827 139.364 567.44 140.568C569.077 141.75 571.088 142.341 573.474 142.341ZM691.216 84.1818V154H678.466L648.091 110.057H647.58V154H632.818V84.1818H645.773L675.909 128.091H676.523V84.1818H691.216ZM726.798 155.023C721.503 155.023 716.923 153.898 713.06 151.648C709.219 149.375 706.253 146.216 704.162 142.17C702.071 138.102 701.026 133.386 701.026 128.023C701.026 122.614 702.071 117.886 704.162 113.841C706.253 109.773 709.219 106.614 713.06 104.364C716.923 102.091 721.503 100.955 726.798 100.955C732.094 100.955 736.662 102.091 740.503 104.364C744.366 106.614 747.344 109.773 749.435 113.841C751.526 117.886 752.571 122.614 752.571 128.023C752.571 133.386 751.526 138.102 749.435 142.17C747.344 146.216 744.366 149.375 740.503 151.648C736.662 153.898 732.094 155.023 726.798 155.023ZM726.866 143.773C729.276 143.773 731.287 143.091 732.901 141.727C734.514 140.341 735.73 138.455 736.548 136.068C737.389 133.682 737.81 130.966 737.81 127.92C737.81 124.875 737.389 122.159 736.548 119.773C735.73 117.386 734.514 115.5 732.901 114.114C731.287 112.727 729.276 112.034 726.866 112.034C724.435 112.034 722.389 112.727 720.73 114.114C719.094 115.5 717.855 117.386 717.014 119.773C716.196 122.159 715.787 124.875 715.787 127.92C715.787 130.966 716.196 133.682 717.014 136.068C717.855 138.455 719.094 140.341 720.73 141.727C722.389 143.091 724.435 143.773 726.866 143.773ZM789.866 101.636V112.545H758.332V101.636H789.866ZM765.491 89.0909H780.014V137.909C780.014 139.25 780.219 140.295 780.628 141.045C781.037 141.773 781.605 142.284 782.332 142.58C783.082 142.875 783.946 143.023 784.923 143.023C785.605 143.023 786.287 142.966 786.969 142.852C787.651 142.716 788.173 142.614 788.537 142.545L790.821 153.352C790.094 153.58 789.071 153.841 787.753 154.136C786.435 154.455 784.832 154.648 782.946 154.716C779.446 154.852 776.378 154.386 773.741 153.318C771.128 152.25 769.094 150.591 767.639 148.341C766.185 146.091 765.469 143.25 765.491 139.818V89.0909ZM822.628 155.023C817.241 155.023 812.605 153.932 808.719 151.75C804.855 149.545 801.878 146.432 799.787 142.409C797.696 138.364 796.651 133.58 796.651 128.057C796.651 122.67 797.696 117.943 799.787 113.875C801.878 109.807 804.821 106.636 808.616 104.364C812.435 102.091 816.912 100.955 822.048 100.955C825.503 100.955 828.719 101.511 831.696 102.625C834.696 103.716 837.31 105.364 839.537 107.568C841.787 109.773 843.537 112.545 844.787 115.886C846.037 119.205 846.662 123.091 846.662 127.545V131.534H802.446V122.534H832.991C832.991 120.443 832.537 118.591 831.628 116.977C830.719 115.364 829.457 114.102 827.844 113.193C826.253 112.261 824.401 111.795 822.287 111.795C820.082 111.795 818.128 112.307 816.423 113.33C814.741 114.33 813.423 115.682 812.469 117.386C811.514 119.068 811.026 120.943 811.003 123.011V131.568C811.003 134.159 811.48 136.398 812.435 138.284C813.412 140.17 814.787 141.625 816.56 142.648C818.332 143.67 820.435 144.182 822.866 144.182C824.48 144.182 825.957 143.955 827.298 143.5C828.639 143.045 829.787 142.364 830.741 141.455C831.696 140.545 832.423 139.432 832.923 138.114L846.355 139C845.673 142.227 844.276 145.045 842.162 147.455C840.071 149.841 837.366 151.705 834.048 153.045C830.753 154.364 826.946 155.023 822.628 155.023ZM899.707 116.568L886.412 117.386C886.185 116.25 885.696 115.227 884.946 114.318C884.196 113.386 883.207 112.648 881.98 112.102C880.776 111.534 879.332 111.25 877.651 111.25C875.401 111.25 873.503 111.727 871.957 112.682C870.412 113.614 869.639 114.864 869.639 116.432C869.639 117.682 870.139 118.739 871.139 119.602C872.139 120.466 873.855 121.159 876.287 121.682L885.764 123.591C890.855 124.636 894.651 126.318 897.151 128.636C899.651 130.955 900.901 134 900.901 137.773C900.901 141.205 899.889 144.216 897.866 146.807C895.866 149.398 893.116 151.42 889.616 152.875C886.139 154.307 882.128 155.023 877.582 155.023C870.651 155.023 865.128 153.58 861.014 150.693C856.923 147.784 854.526 143.83 853.821 138.83L868.105 138.08C868.537 140.193 869.582 141.807 871.241 142.92C872.901 144.011 875.026 144.557 877.616 144.557C880.162 144.557 882.207 144.068 883.753 143.091C885.321 142.091 886.116 140.807 886.139 139.239C886.116 137.92 885.56 136.841 884.469 136C883.378 135.136 881.696 134.477 879.423 134.023L870.355 132.216C865.241 131.193 861.435 129.42 858.935 126.898C856.457 124.375 855.219 121.159 855.219 117.25C855.219 113.886 856.128 110.989 857.946 108.557C859.787 106.125 862.366 104.25 865.685 102.932C869.026 101.614 872.935 100.955 877.412 100.955C884.026 100.955 889.23 102.352 893.026 105.148C896.844 107.943 899.071 111.75 899.707 116.568ZM918.534 154.886C916.284 154.886 914.352 154.091 912.739 152.5C911.148 150.886 910.352 148.955 910.352 146.705C910.352 144.477 911.148 142.568 912.739 140.977C914.352 139.386 916.284 138.591 918.534 138.591C920.716 138.591 922.625 139.386 924.261 140.977C925.898 142.568 926.716 144.477 926.716 146.705C926.716 148.205 926.33 149.58 925.557 150.83C924.807 152.057 923.818 153.045 922.591 153.795C921.364 154.523 920.011 154.886 918.534 154.886ZM957.935 154.852C953.957 154.852 950.355 153.83 947.128 151.784C943.923 149.716 941.378 146.682 939.491 142.682C937.628 138.659 936.696 133.727 936.696 127.886C936.696 121.886 937.662 116.898 939.594 112.92C941.526 108.92 944.094 105.932 947.298 103.955C950.526 101.955 954.06 100.955 957.901 100.955C960.832 100.955 963.276 101.455 965.23 102.455C967.207 103.432 968.798 104.659 970.003 106.136C971.23 107.591 972.162 109.023 972.798 110.432H973.241V84.1818H987.73V154H973.412V145.614H972.798C972.116 147.068 971.151 148.511 969.901 149.943C968.673 151.352 967.071 152.523 965.094 153.455C963.139 154.386 960.753 154.852 957.935 154.852ZM962.537 143.295C964.878 143.295 966.855 142.659 968.469 141.386C970.105 140.091 971.355 138.284 972.219 135.966C973.105 133.648 973.548 130.932 973.548 127.818C973.548 124.705 973.116 122 972.253 119.705C971.389 117.409 970.139 115.636 968.503 114.386C966.866 113.136 964.878 112.511 962.537 112.511C960.151 112.511 958.139 113.159 956.503 114.455C954.866 115.75 953.628 117.545 952.787 119.841C951.946 122.136 951.526 124.795 951.526 127.818C951.526 130.864 951.946 133.557 952.787 135.898C953.651 138.216 954.889 140.034 956.503 141.352C958.139 142.648 960.151 143.295 962.537 143.295ZM1023.33 155.023C1018.03 155.023 1013.45 153.898 1009.59 151.648C1005.75 149.375 1002.78 146.216 1000.69 142.17C998.602 138.102 997.557 133.386 997.557 128.023C997.557 122.614 998.602 117.886 1000.69 113.841C1002.78 109.773 1005.75 106.614 1009.59 104.364C1013.45 102.091 1018.03 100.955 1023.33 100.955C1028.62 100.955 1033.19 102.091 1037.03 104.364C1040.9 106.614 1043.88 109.773 1045.97 113.841C1048.06 117.886 1049.1 122.614 1049.1 128.023C1049.1 133.386 1048.06 138.102 1045.97 142.17C1043.88 146.216 1040.9 149.375 1037.03 151.648C1033.19 153.898 1028.62 155.023 1023.33 155.023ZM1023.4 143.773C1025.81 143.773 1027.82 143.091 1029.43 141.727C1031.05 140.341 1032.26 138.455 1033.08 136.068C1033.92 133.682 1034.34 130.966 1034.34 127.92C1034.34 124.875 1033.92 122.159 1033.08 119.773C1032.26 117.386 1031.05 115.5 1029.43 114.114C1027.82 112.727 1025.81 112.034 1023.4 112.034C1020.97 112.034 1018.92 112.727 1017.26 114.114C1015.63 115.5 1014.39 117.386 1013.55 119.773C1012.73 122.159 1012.32 124.875 1012.32 127.92C1012.32 130.966 1012.73 133.682 1013.55 136.068C1014.39 138.455 1015.63 140.341 1017.26 141.727C1018.92 143.091 1020.97 143.773 1023.4 143.773ZM1082.2 155.023C1076.84 155.023 1072.23 153.886 1068.36 151.614C1064.52 149.318 1061.57 146.136 1059.5 142.068C1057.45 138 1056.43 133.318 1056.43 128.023C1056.43 122.659 1057.47 117.955 1059.53 113.909C1061.63 109.841 1064.59 106.67 1068.43 104.398C1072.27 102.102 1076.84 100.955 1082.14 100.955C1086.7 100.955 1090.7 101.784 1094.14 103.443C1097.57 105.102 1100.28 107.432 1102.28 110.432C1104.28 113.432 1105.39 116.955 1105.59 121H1091.89C1091.5 118.386 1090.48 116.284 1088.82 114.693C1087.18 113.08 1085.03 112.273 1082.38 112.273C1080.12 112.273 1078.16 112.886 1076.48 114.114C1074.82 115.318 1073.52 117.08 1072.59 119.398C1071.66 121.716 1071.19 124.523 1071.19 127.818C1071.19 131.159 1071.65 134 1072.56 136.341C1073.49 138.682 1074.8 140.466 1076.48 141.693C1078.16 142.92 1080.12 143.534 1082.38 143.534C1084.03 143.534 1085.52 143.193 1086.84 142.511C1088.18 141.83 1089.28 140.841 1090.15 139.545C1091.03 138.227 1091.61 136.648 1091.89 134.807H1105.59C1105.36 138.807 1104.27 142.33 1102.32 145.375C1100.39 148.398 1097.72 150.761 1094.31 152.466C1090.9 154.17 1086.86 155.023 1082.2 155.023ZM1126.74 101.636L1136.36 119.943L1146.21 101.636H1161.11L1145.94 127.818L1161.52 154H1146.69L1136.36 135.898L1126.2 154H1111.2L1126.74 127.818L1111.74 101.636H1126.74Z" fill="white"/>
<g clip-path="url(#clip0_15362_66230)">
<path d="M24 30H208V214H24V30Z" fill="#1C1C1C"/>
<path d="M169.667 53H62.3333C53.8233 53 47 59.9 47 68.3333V175.667C47 184.1 53.8233 191 62.3333 191H169.667C178.177 191 185 184.1 185 175.667V68.3333C185 59.9 178.177 53 169.667 53ZM100.667 160.333L62.3333 122L73.1433 111.19L100.667 138.637L158.857 80.4467L169.667 91.3333L100.667 160.333Z" fill="white"/>
</g>
<defs>
<filter id="filter0_d_15362_66230" x="0" y="0" width="1385" height="251" filterUnits="userSpaceOnUse" color-interpolation-filters="sRGB">
<feFlood flood-opacity="0" result="BackgroundImageFix"/>
<feColorMatrix in="SourceAlpha" type="matrix" values="0 0 0 0 0 0 0 0 0 0 0 0 0 0 0 0 0 0 127 0" result="hardAlpha"/>
<feOffset dy="4"/>
<feGaussianBlur stdDeviation="2"/>
<feComposite in2="hardAlpha" operator="out"/>
<feColorMatrix type="matrix" values="0 0 0 0 0 0 0 0 0 0 0 0 0 0 0 0 0 0 0.25 0"/>
<feBlend mode="normal" in2="BackgroundImageFix" result="effect1_dropShadow_15362_66230"/>
<feBlend mode="normal" in="SourceGraphic" in2="effect1_dropShadow_15362_66230" result="shape"/>
</filter>
<clipPath id="clip0_15362_66230">
<rect width="184" height="184" fill="white" transform="translate(24 30)"/>
</clipPath>
</defs>
</svg>
